<svg xmlns="http://www.w3.org/2000/svg" viewBox="0 0 800 420" font-family="Segoe UI, sans-serif">
<rect width="800" height="420" fill="#0d1117" rx="8"/>
<text x="64" y="30" fill="#e6edf3" font-size="17" font-weight="700">★ Star History — timoncool/hermes-ru-locale</text>
<text x="776" y="30" fill="#e6edf3" font-size="14" text-anchor="end">41 stars · updated 2026-10-08</text>
<line x1="64" y1="364.0" x2="776" y2="364.0" stroke="#30363d" stroke-width="1"/><text x="54" y="368.0" fill="#e6edf3" font-size="13" text-anchor="end">0</text><line x1="64" y1="286.9" x2="776" y2="286.9" stroke="#30363d" stroke-width="1"/><text x="54" y="290.9" fill="#e6edf3" font-size="13" text-anchor="end">10</text><line x1="64" y1="209.9" x2="776" y2="209.9" stroke="#30363d" stroke-width="1"/><text x="54" y="213.9" fill="#e6edf3" font-size="13" text-anchor="end">20</text><line x1="64" y1="125.1" x2="776" y2="125.1" stroke="#30363d" stroke-width="1"/><text x="54" y="129.1" fill="#e6edf3" font-size="13" text-anchor="end">31</text><line x1="64" y1="48.0" x2="776" y2="48.0" stroke="#30363d" stroke-width="1"/><text x="54" y="52.0" fill="#e6edf3" font-size="13" text-anchor="end">41</text>
<path d="M64.0,364.0 L64.0,356.3 L64.0,348.6 L64.0,340.9 L64.3,333.2 L64.5,325.5 L65.5,317.8 L65.6,310.0 L67.5,302.3 L70.3,294.6 L71.2,286.9 L71.7,279.2 L73.6,271.5 L86.4,263.8 L86.8,256.1 L92.6,248.4 L108.5,240.7 L116.8,233.0 L125.0,225.3 L161.5,217.6 L199.3,209.9 L199.5,202.1 L199.8,194.4 L210.8,186.7 L260.9,179.0 L264.8,171.3 L280.0,163.6 L349.4,155.9 L383.1,148.2 L386.3,140.5 L386.8,132.8 L386.8,125.1 L388.1,117.4 L388.2,109.7 L389.4,102.0 L427.9,94.2 L451.8,86.5 L481.1,78.8 L517.4,71.1 L641.9,63.4 L771.3,55.7 L771.5,48.0 L776.0,48.0" fill="none" stroke="#4f8ff7" stroke-width="2.5" stroke-linejoin="round"/>
<circle cx="776.0" cy="48.0" r="4" fill="#4f8ff7"/>
<text x="64.0" y="388" fill="#e6edf3" font-size="13" text-anchor="middle">Jul 06, 2026</text><text x="301.3" y="388" fill="#e6edf3" font-size="13" text-anchor="middle">Aug 07, 2026</text><text x="538.7" y="388" fill="#e6edf3" font-size="13" text-anchor="middle">Sep 07, 2026</text><text x="776.0" y="388" fill="#e6edf3" font-size="13" text-anchor="middle">Oct 08, 2026</text>
</svg>