<svg xmlns="http://www.w3.org/2000/svg" viewBox="0 0 800 420" font-family="Segoe UI, sans-serif">
<rect width="800" height="420" fill="#ffffff" rx="8"/>
<text x="64" y="30" fill="#1f2328" font-size="17" font-weight="700">★ Star History — timoncool/hermes-ru-locale</text>
<text x="776" y="30" fill="#1f2328" font-size="14" text-anchor="end">39 stars · updated 2026-09-27</text>
<line x1="64" y1="364.0" x2="776" y2="364.0" stroke="#d1d9e0" stroke-width="1"/><text x="54" y="368.0" fill="#1f2328" font-size="13" text-anchor="end">0</text><line x1="64" y1="283.0" x2="776" y2="283.0" stroke="#d1d9e0" stroke-width="1"/><text x="54" y="287.0" fill="#1f2328" font-size="13" text-anchor="end">10</text><line x1="64" y1="201.9" x2="776" y2="201.9" stroke="#d1d9e0" stroke-width="1"/><text x="54" y="205.9" fill="#1f2328" font-size="13" text-anchor="end">20</text><line x1="64" y1="129.0" x2="776" y2="129.0" stroke="#d1d9e0" stroke-width="1"/><text x="54" y="133.0" fill="#1f2328" font-size="13" text-anchor="end">29</text><line x1="64" y1="48.0" x2="776" y2="48.0" stroke="#d1d9e0" stroke-width="1"/><text x="54" y="52.0" fill="#1f2328" font-size="13" text-anchor="end">39</text>
<path d="M64.0,364.0 L64.0,355.9 L64.0,347.8 L64.0,339.7 L64.3,331.6 L64.6,323.5 L65.7,315.4 L65.8,307.3 L67.9,299.2 L71.2,291.1 L72.2,283.0 L72.8,274.9 L74.9,266.8 L89.4,258.7 L89.9,250.6 L96.5,242.5 L114.5,234.4 L123.9,226.3 L133.2,218.2 L174.5,210.1 L217.5,201.9 L217.7,193.8 L218.0,185.7 L230.5,177.6 L287.4,169.5 L291.8,161.4 L309.0,153.3 L387.7,145.2 L425.9,137.1 L429.5,129.0 L430.1,120.9 L430.1,112.8 L431.5,104.7 L431.7,96.6 L433.0,88.5 L476.7,80.4 L503.8,72.3 L537.0,64.2 L578.2,56.1 L719.4,48.0 L776.0,48.0" fill="none" stroke="#0969da" stroke-width="2.5" stroke-linejoin="round"/>
<circle cx="776.0" cy="48.0" r="4" fill="#0969da"/>
<text x="64.0" y="388" fill="#1f2328" font-size="13" text-anchor="middle">Jul 06, 2026</text><text x="301.3" y="388" fill="#1f2328" font-size="13" text-anchor="middle">Aug 03, 2026</text><text x="538.7" y="388" fill="#1f2328" font-size="13" text-anchor="middle">Aug 30, 2026</text><text x="776.0" y="388" fill="#1f2328" font-size="13" text-anchor="middle">Sep 27, 2026</text>
</svg>